<svg width="78" height="73" viewBox="0 0 78 73" fill="none" xmlns="http://www.w3.org/2000/svg">
<path d="M53.4485 0L17.2196 0.40183C15.2092 0.573829 14.5456 1.48206 14.0563 3.27089L0.303675 66.793C-0.218825 69.3829 -0.0946513 70.3856 0.891901 71.5539C1.85196 72.6902 2.59357 72.7759 11.5276 72.7759C20.549 72.7758 19.6278 72.6671 20.1719 71.4034C20.5781 69.0887 21.8492 67.6167 23.2163 65.6082C26.8738 61.0247 32.618 58.0215 37.6973 58.0395C43.0106 58.1288 46.6795 60.8053 48.7543 65.1179C49.9277 69.8704 49.2759 71.1578 49.8623 72.5886C50.3434 73.5559 57.8949 72.4729 61.9114 72.7759C66.1187 72.7363 71.34 73.1304 72.4388 72.2869C73.5567 71.4369 73.7953 70.8571 74.6656 66.8531L77.9216 39.8242C78.2763 36.9526 77.4212 35.9611 75.4908 32.575C75.4908 32.575 61.556 5.75277 58.2267 2.53993C57.1362 1.41162 55.7757 0.0695838 53.4485 0ZM50.8381 6.80059C53.1583 7.05017 54.3249 9.75068 54.3249 9.75068L65.2746 29.4894C65.2746 29.4894 65.9328 31.1868 66.091 31.9748C66.3387 33.2132 66.3264 33.5171 65.9963 34.2105C65.5249 35.2012 65.004 35.6623 63.9709 36.008L21.1645 36.2751C19.5435 36.212 19.3723 35.243 19.5678 33.979L25.0586 9.43898C25.3388 8.09968 25.5342 7.7844 26.4301 7.72168L50.8381 6.80059Z" fill="#026300"/>
</svg>
