<svg width="82" height="69" viewBox="0 0 82 69" fill="none" xmlns="http://www.w3.org/2000/svg">
<path d="M10.1005 3.4686C9.95722 3.47742 9.81785 3.4923 9.68118 3.51625V3.51884C9.68075 3.51931 9.65956 3.52317 9.65956 3.52317C7.61851 3.99796 8.32668 6.68249 8.30776 7.99841L8.53892 31.1667C8.53892 31.1887 8.53894 31.2054 8.56065 31.2258C7.87376 31.5208 7.24062 31.9271 6.68727 32.4283C3.93136 34.9432 3.74384 39.2073 6.26818 41.9528C6.70145 42.4216 7.19896 42.8268 7.74632 43.1564L7.79497 44.4225C7.84968 45.8299 7.99988 46.538 8.47257 47.6328C9.20817 49.3295 10.6554 51.0249 12.127 51.913C14.9691 53.6281 15.567 56.6976 13.4809 58.8669C10.593 61.8724 6.24173 60.2164 5.7838 55.9243C5.623 54.3914 5.25097 53.7233 4.28753 53.2312C3.33087 52.744 2.31238 52.7365 1.47475 53.2115C0.342436 53.8533 0 54.5318 0 56.1337C0.000260483 60.84 3.40335 64.9485 8.17643 66.0031V66.0023C9.5227 66.2998 12.0245 66.1614 13.3375 65.7164C17.9607 64.1498 20.9197 59.7733 20.496 55.13C20.1669 51.5601 18.5012 48.9651 15.204 46.8897C14.0707 46.1764 13.6028 45.2729 13.6028 43.854V43.7168C14.4224 43.4155 15.1758 42.959 15.8213 42.3725C18.5775 39.8579 18.7657 35.5937 16.2416 32.8479C15.4269 31.9655 14.3907 31.3155 13.2397 30.9648C13.2397 29.4752 13.3367 5.09881 13.1668 4.76649C13.1668 4.56892 13.0324 4.39897 12.8195 4.24011C12.2853 3.81468 11.403 3.513 10.534 3.46986C10.3885 3.46294 10.2447 3.46104 10.1023 3.46986L10.1005 3.4686ZM13.1773 0.00415774C10.8133 -0.0854056 8.04675 1.27904 6.87805 3.41763V3.42454C6.87805 3.42714 6.85643 3.46121 6.85643 3.46649C4.94449 7.71176 12.2034 12.3473 15.2223 15.1974L72.8981 67.9068C74.639 69.2356 76.0462 69.2295 77.7529 68.5459C80.9659 67.1586 83.3082 63.3855 81.1873 61.7368V61.7359C81.1873 61.7368 15.9567 1.04229 14.9093 0.583922C14.4555 0.155964 13.86 0.00888734 13.1784 0.00483083L13.1773 0.00415774Z" fill="#026300"/>
</svg>
