<svg width="74" height="73" viewBox="0 0 74 73" fill="none" xmlns="http://www.w3.org/2000/svg">
<path d="M66.0714 0.1875H7.92857C5.82578 0.1875 3.80912 1.00731 2.32222 2.46658C0.835329 3.92584 0 5.90503 0 7.96875L0 65.0312C0 67.095 0.835329 69.0742 2.32222 70.5334C3.80912 71.9927 5.82578 72.8125 7.92857 72.8125H30.5993V48.1216H20.1931V36.5H30.5993V27.6423C30.5993 17.5672 36.7109 12.002 46.0716 12.002C50.5546 12.002 55.2423 12.7866 55.2423 12.7866V22.6753H50.0772C44.988 22.6753 43.4007 25.7748 43.4007 28.9538V36.5H54.7617L52.9447 48.1216H43.4007V72.8125H66.0714C68.1742 72.8125 70.1909 71.9927 71.6778 70.5334C73.1647 69.0742 74 67.095 74 65.0312V7.96875C74 5.90503 73.1647 3.92584 71.6778 2.46658C70.1909 1.00731 68.1742 0.1875 66.0714 0.1875Z" fill="#026300"/>
</svg>
