<svg width="112" height="76" viewBox="0 0 112 76" fill="none" xmlns="http://www.w3.org/2000/svg">
<path d="M97.6711 74.1806L97.0013 72.428H91.2988L90.629 74.2188C90.3675 74.9173 90.1443 75.3904 89.9593 75.638C89.7743 75.8793 89.4713 76 89.0503 76C88.6931 76 88.3774 75.8698 88.1031 75.6095C87.8288 75.3491 87.6917 75.0538 87.6917 74.7236C87.6917 74.5331 87.7232 74.3362 87.7874 74.133C87.8513 73.9298 87.9564 73.6472 88.1031 73.2853L91.6911 64.2171C91.7932 63.9567 91.9143 63.6455 92.0546 63.2836C92.2014 62.9153 92.3544 62.6104 92.5139 62.3691C92.6797 62.1278 92.8934 61.9341 93.155 61.7881C93.4229 61.6357 93.7514 61.5595 94.1405 61.5595C94.5359 61.5595 94.8644 61.6357 95.1259 61.7881C95.3938 61.9341 95.6075 62.1246 95.767 62.3596C95.9328 62.5946 96.0701 62.8486 96.1785 63.1216C96.2933 63.3884 96.4367 63.7471 96.609 64.198L100.273 73.2091C100.561 73.8949 100.704 74.3934 100.704 74.7045C100.704 75.0284 100.567 75.3269 100.293 75.5999C100.025 75.8666 99.6995 76 99.3167 76C99.0935 76 98.9021 75.9587 98.7426 75.8762C98.5831 75.8 98.4492 75.6952 98.3407 75.5618C98.2323 75.4221 98.1143 75.2126 97.9867 74.9332C97.8655 74.6474 97.7604 74.3966 97.6711 74.1806ZM92.045 70.3038H96.2359L94.1213 64.5409L92.045 70.3038ZM77.0521 63.274V68.1701L82.6302 62.3787C82.8981 62.0992 83.1246 61.8929 83.3096 61.7595C83.5009 61.6261 83.7529 61.5595 84.0654 61.5595C84.4736 61.5595 84.8022 61.6801 85.0509 61.9214C85.3061 62.1564 85.4336 62.4453 85.4336 62.7882C85.4336 63.201 85.2199 63.6106 84.7926 64.017L81.3385 67.2747L85.3189 72.9519C85.5995 73.3456 85.81 73.6917 85.9502 73.9901C86.0906 74.2822 86.1608 74.568 86.1608 74.8474C86.1608 75.1586 86.0364 75.4285 85.7876 75.6571C85.5452 75.8857 85.2135 76 84.7926 76C84.3971 76 84.075 75.9174 83.8263 75.7523C83.5775 75.5809 83.367 75.3555 83.1948 75.076C83.0225 74.7966 82.8695 74.5426 82.7355 74.314L79.3772 69.1703L77.0521 71.3897V74.2759C77.0521 74.8601 76.9181 75.2951 76.6502 75.5809C76.3824 75.8603 76.0379 76 75.6169 76C75.3745 76 75.1417 75.9365 74.9185 75.8095C74.6952 75.6825 74.523 75.511 74.4018 75.2951C74.312 75.1173 74.2584 74.9109 74.2392 74.676C74.2198 74.441 74.2105 74.1013 74.2105 73.6568V63.274C74.2105 62.7025 74.3349 62.2739 74.5837 61.9881C74.8388 61.7024 75.1833 61.5595 75.617 61.5595C76.0444 61.5595 76.3888 61.7024 76.6503 61.9881C76.9182 62.2675 77.0522 62.6962 77.0522 63.274H77.0521ZM71.0531 64.1313H67.9531V74.2759C67.9531 74.8601 67.8223 75.2951 67.5607 75.5809C67.2992 75.8603 66.9613 76 66.5466 76C66.1257 76 65.7812 75.8571 65.5133 75.5714C65.2518 75.2856 65.1209 74.8538 65.1209 74.2759V64.1313H62.0209C61.5361 64.1313 61.1758 64.0266 60.9398 63.817C60.7038 63.6011 60.5857 63.3185 60.5857 62.9692C60.5857 62.6073 60.7069 62.3215 60.9493 62.1119C61.198 61.9024 61.5553 61.7976 62.0209 61.7976H71.0531C71.5442 61.7976 71.9078 61.9056 72.1437 62.1215C72.3862 62.3374 72.5074 62.62 72.5074 62.9692C72.5074 63.3185 72.3862 63.6011 72.1437 63.817C71.9014 64.0266 71.5379 64.1313 71.0531 64.1313ZM59.5141 71.5707C59.5141 72.4153 59.2941 73.1741 58.854 73.8473C58.4203 74.5204 57.7825 75.0475 56.9405 75.4285C56.0985 75.8095 55.1002 76 53.9457 76C52.5616 76 51.4197 75.7396 50.5203 75.2189C49.8825 74.8443 49.3626 74.3458 48.9607 73.7234C48.5653 73.0947 48.3676 72.4851 48.3676 71.8945C48.3676 71.5516 48.4855 71.2595 48.7215 71.0182C48.964 70.7705 49.2701 70.6467 49.64 70.6467C49.9399 70.6467 50.1918 70.742 50.3959 70.9325C50.6064 71.123 50.7851 71.4056 50.9318 71.7802C51.1104 72.2248 51.3017 72.5963 51.5059 72.8947C51.7164 73.1932 52.0098 73.4408 52.3861 73.6377C52.7624 73.8282 53.2567 73.9235 53.8691 73.9235C54.711 73.9235 55.3936 73.7298 55.9166 73.3424C56.4461 72.9487 56.7107 72.4597 56.7107 71.8755C56.7107 71.4119 56.5673 71.0373 56.2802 70.7515C55.9996 70.4594 55.6328 70.2371 55.1799 70.0847C54.7335 69.9323 54.1338 69.7704 53.3811 69.5989C52.3733 69.364 51.5282 69.0909 50.8457 68.7797C50.1695 68.4622 49.6305 68.0336 49.2287 67.4938C48.8332 66.9477 48.6354 66.2714 48.6354 65.4649C48.6354 64.6965 48.8459 64.0139 49.267 63.4169C49.6879 62.82 50.2971 62.3628 51.0944 62.0453C51.8918 61.7214 52.8293 61.5595 53.9074 61.5595C54.7684 61.5595 55.5115 61.6674 56.1367 61.8833C56.7681 62.0929 57.2912 62.3755 57.7059 62.7311C58.1205 63.0804 58.4234 63.4487 58.6148 63.836C58.8061 64.2234 58.9018 64.6012 58.9018 64.9696C58.9018 65.3061 58.7806 65.6109 58.5383 65.884C58.3022 66.1507 58.0056 66.2841 57.6485 66.2841C57.3232 66.2841 57.0745 66.2047 56.9022 66.0459C56.7364 65.8808 56.5545 65.6141 56.3568 65.2458C56.1017 64.7187 55.7955 64.3091 55.4383 64.017C55.081 63.7186 54.5069 63.5693 53.7161 63.5693C52.9825 63.5693 52.3893 63.7313 51.9364 64.0551C51.4899 64.3726 51.2666 64.7568 51.2666 65.2077C51.2666 65.4871 51.3434 65.7284 51.4963 65.9316C51.6493 66.1348 51.8598 66.3095 52.1277 66.4555C52.3957 66.6016 52.6668 66.7159 52.9411 66.7985C53.2154 66.881 53.6682 67.0017 54.2996 67.1604C55.0906 67.3446 55.8051 67.5478 56.4429 67.77C57.0871 67.9923 57.6325 68.2622 58.079 68.5797C58.5319 68.8972 58.8827 69.3005 59.1315 69.7894C59.3866 70.272 59.5141 70.8658 59.5141 71.5707ZM43.7463 74.1806L43.0765 72.428H37.374L36.7042 74.2188C36.4427 74.9173 36.2195 75.3904 36.0346 75.638C35.8495 75.8793 35.5465 76 35.1255 76C34.7683 76 34.4526 75.8698 34.1783 75.6095C33.904 75.3491 33.767 75.0538 33.767 74.7236C33.767 74.5331 33.7984 74.3362 33.8626 74.133C33.9265 73.9298 34.0316 73.6472 34.1783 73.2853L37.7663 64.2171C37.8684 63.9567 37.9896 63.6455 38.1299 63.2836C38.2767 62.9153 38.4297 62.6104 38.5892 62.3691C38.755 62.1278 38.9686 61.9341 39.2302 61.7881C39.4981 61.6357 39.8266 61.5595 40.2157 61.5595C40.6112 61.5595 40.9397 61.6357 41.2012 61.7881C41.4691 61.9341 41.6828 62.1246 41.8423 62.3596C42.0081 62.5946 42.1453 62.8486 42.2537 63.1216C42.3685 63.3884 42.5119 63.7471 42.6842 64.198L46.3487 73.2091C46.6358 73.8949 46.7794 74.3934 46.7794 74.7045C46.7794 75.0284 46.6422 75.3269 46.3679 75.5999C46.1 75.8666 45.7747 76 45.392 76C45.1687 76 44.9773 75.9587 44.8178 75.8762C44.6584 75.8 44.5245 75.6952 44.416 75.5618C44.3076 75.4221 44.1896 75.2126 44.062 74.9332C43.9408 74.6474 43.8356 74.3966 43.7463 74.1806ZM38.1203 70.3038H42.3111L40.1966 64.5409L38.1203 70.3038ZM40.5505 58.1589H41.8423C42.1676 58.1589 42.3303 58.2065 42.3303 58.3018C42.3303 58.3526 42.1517 58.559 41.7944 58.9209C41.4372 59.2829 41.0768 59.629 40.7133 59.9592C40.3497 60.2894 40.0977 60.4894 39.9574 60.5593C39.5938 60.7435 39.2048 60.8355 38.7901 60.8355C38.5158 60.8355 38.3787 60.7562 38.3787 60.5974C38.3787 60.4894 38.462 60.3021 38.6274 60.0354L39.0579 59.2353C39.3067 58.7717 39.5237 58.4764 39.7086 58.3494C39.8936 58.2224 40.1742 58.1589 40.5505 58.1589ZM31.6333 64.1313H28.5333V74.2759C28.5333 74.8601 28.4025 75.2951 28.1409 75.5809C27.8794 75.8603 27.5414 76 27.1268 76C26.7059 76 26.3614 75.8571 26.0935 75.5714C25.8319 75.2856 25.7011 74.8538 25.7011 74.2759V64.1313H22.6012C22.1164 64.1313 21.7559 64.0266 21.52 63.817C21.284 63.6011 21.166 63.3185 21.166 62.9692C21.166 62.6073 21.2871 62.3215 21.5296 62.1119C21.7783 61.9024 22.1356 61.7976 22.6012 61.7976H31.6333C32.1244 61.7976 32.4881 61.9056 32.724 62.1215C32.9665 62.3374 33.0876 62.62 33.0876 62.9692C33.0876 63.3185 32.9665 63.6011 32.724 63.817C32.4817 64.0266 32.1181 64.1313 31.6333 64.1313ZM20.0944 71.5707C20.0944 72.4153 19.8744 73.1741 19.4342 73.8473C19.0005 74.5204 18.3626 75.0475 17.5207 75.4285C16.6787 75.8095 15.6804 76 14.5259 76C13.1418 76 11.9999 75.7396 11.1005 75.2189C10.4627 74.8443 9.9429 74.3458 9.54103 73.7234C9.14555 73.0947 8.94785 72.4851 8.94785 71.8945C8.94785 71.5516 9.06582 71.2595 9.30179 71.0182C9.54415 70.7705 9.85029 70.6467 10.2203 70.6467C10.5201 70.6467 10.772 70.742 10.9761 70.9325C11.1866 71.123 11.3652 71.4056 11.512 71.7802C11.6906 72.2248 11.8819 72.5963 12.0861 72.8947C12.2966 73.1932 12.5901 73.4408 12.9664 73.6377C13.3427 73.8282 13.837 73.9235 14.4494 73.9235C15.2913 73.9235 15.9738 73.7298 16.4968 73.3424C17.0263 72.9487 17.2909 72.4597 17.2909 71.8755C17.2909 71.4119 17.1474 71.0373 16.8604 70.7515C16.5798 70.4594 16.213 70.2371 15.7601 70.0847C15.3136 69.9323 14.714 69.7704 13.9614 69.5989C12.9535 69.364 12.1084 69.0909 11.4259 68.7797C10.7498 68.4622 10.2107 68.0336 9.80885 67.4938C9.41337 66.9477 9.21568 66.2714 9.21568 65.4649C9.21568 64.6965 9.42613 64.0139 9.84716 63.4169C10.2681 62.82 10.8772 62.3628 11.6746 62.0453C12.4719 61.7214 13.4095 61.5595 14.4876 61.5595C15.3487 61.5595 16.0919 61.6674 16.717 61.8833C17.3484 62.0929 17.8714 62.3755 18.2861 62.7311C18.7007 63.0804 19.0037 63.4487 19.1951 63.836C19.3864 64.2234 19.482 64.6012 19.482 64.9696C19.482 65.3061 19.3608 65.6109 19.1185 65.884C18.8825 66.1507 18.5859 66.2841 18.2286 66.2841C17.9033 66.2841 17.6546 66.2047 17.4824 66.0459C17.3166 65.8808 17.1347 65.6141 16.937 65.2458C16.6818 64.7187 16.3757 64.3091 16.0185 64.017C15.6613 63.7186 15.0872 63.5693 14.2962 63.5693C13.5627 63.5693 12.9695 63.7313 12.5166 64.0551C12.0701 64.3726 11.8469 64.7568 11.8469 65.2077C11.8469 65.4871 11.9237 65.7284 12.0764 65.9316C12.2295 66.1348 12.44 66.3095 12.7079 66.4555C12.9758 66.6016 13.2469 66.7159 13.5212 66.7985C13.7955 66.881 14.2484 67.0017 14.8798 67.1604C15.6708 67.3446 16.3853 67.5478 17.0231 67.77C17.6673 67.9923 18.2127 68.2622 18.6592 68.5797C19.1121 68.8972 19.463 69.3005 19.7118 69.7894C19.9669 70.272 20.0944 70.8658 20.0944 71.5707ZM13.4925 58.7304L14.4494 59.8449L15.387 58.7304C15.6549 58.4129 15.8367 58.2192 15.9324 58.1494C16.0345 58.0795 16.2194 58.0446 16.4873 58.0446H17.2527C17.5142 58.0446 17.645 58.089 17.645 58.1779C17.645 58.2478 17.5461 58.4066 17.3483 58.6542L16.296 59.9211C16.1365 60.1116 16.0153 60.2545 15.9324 60.3497C15.8555 60.445 15.7633 60.5307 15.6549 60.6069C15.5465 60.6768 15.4157 60.7276 15.2627 60.7593C15.1159 60.7847 14.9372 60.7974 14.7268 60.7974H14.191C13.904 60.7974 13.6774 60.772 13.5116 60.7212C13.3521 60.664 13.2343 60.5974 13.1577 60.5211C13.0873 60.4449 12.9121 60.2449 12.6314 59.921L11.5311 58.6351C11.3461 58.3938 11.2536 58.2414 11.2536 58.1779C11.2536 58.1017 11.2759 58.0604 11.3203 58.0541C11.3712 58.0477 11.4864 58.0446 11.6648 58.0446H12.4111C12.679 58.0446 12.8639 58.0858 12.966 58.1684C13.0744 58.251 13.2498 58.4383 13.4922 58.7304L13.4925 58.7304ZM26.1885 58.8007L27.1452 59.9152L28.0828 58.8007C28.3508 58.4832 28.5326 58.2896 28.6283 58.2197C28.7303 58.1498 28.9153 58.1149 29.1832 58.1149H29.9486C30.2101 58.1149 30.3409 58.1593 30.3409 58.2483C30.3409 58.3181 30.242 58.4769 30.0443 58.7245L28.9919 59.9914C28.8324 60.1819 28.7112 60.3248 28.6283 60.4201C28.5515 60.5153 28.4593 60.601 28.3508 60.6772C28.2424 60.7471 28.1116 60.7979 27.9585 60.8297C27.8118 60.8551 27.6332 60.8678 27.4227 60.8678H26.8869C26.5999 60.8678 26.3734 60.8424 26.2075 60.7916C26.0481 60.7344 25.9301 60.6678 25.8536 60.5916C25.7832 60.5153 25.6079 60.3153 25.3273 59.9915L24.2269 58.7055C24.042 58.4642 23.9495 58.3118 23.9495 58.2483C23.9495 58.1721 23.9717 58.1308 24.0162 58.1245C24.0671 58.118 24.182 58.115 24.3606 58.115H25.107C25.3749 58.115 25.5599 58.1563 25.6619 58.2388C25.7703 58.3214 25.9457 58.5087 26.1882 58.8008L26.1885 58.8007ZM36.9863 1.45625C36.9261 1.45994 36.8676 1.4662 36.8102 1.47625V1.47716C36.8101 1.47736 36.801 1.47901 36.801 1.47901C35.9435 1.67834 36.2411 2.80542 36.2331 3.35789L36.3303 13.0849C36.3303 13.0941 36.3303 13.1011 36.3396 13.1097C36.051 13.2335 35.7849 13.4041 35.5525 13.6145C34.3947 14.6704 34.316 16.4606 35.3764 17.6133C35.5584 17.8101 35.7675 17.9802 35.9975 18.1186L36.0178 18.6501C36.041 19.241 36.1039 19.5383 36.3025 19.9979C36.6115 20.7103 37.2195 21.4221 37.8377 21.7949C39.0316 22.515 39.2828 23.8037 38.4065 24.7145C37.1933 25.9763 35.3654 25.281 35.173 23.479C35.1054 22.8354 34.9491 22.555 34.5443 22.3484C34.1425 22.1438 33.7146 22.1407 33.3627 22.3401C32.8871 22.6095 32.7432 22.8944 32.7432 23.5669C32.7433 25.5428 34.173 27.2677 36.1781 27.7105V27.71C36.7436 27.8349 37.7946 27.7768 38.3461 27.59C40.2883 26.9323 41.5313 25.0949 41.3533 23.1454C41.215 21.6467 40.5154 20.5571 39.1303 19.6858C38.6542 19.3863 38.4577 19.007 38.4577 18.4113V18.3537C38.8019 18.2272 39.1185 18.0356 39.3896 17.7893C40.5475 16.7336 40.6265 14.9433 39.5661 13.7905C39.2239 13.4201 38.7886 13.1471 38.3051 12.9999C38.3051 12.3745 38.3458 2.14038 38.2745 2.00086C38.2745 1.91791 38.218 1.84655 38.1286 1.77986C37.9042 1.60124 37.5335 1.47459 37.1685 1.45648C37.1074 1.45371 37.047 1.45279 36.9872 1.45648L36.9863 1.45625ZM38.2789 0.00174566C37.2858 -0.0358573 36.1236 0.536986 35.6327 1.43485V1.43762C35.6327 1.43854 35.6234 1.453 35.6234 1.45521C34.8203 3.23754 37.8695 5.18372 39.1377 6.38031L63.3666 28.5098C64.098 29.0676 64.689 29.0651 65.406 28.7781C66.7558 28.1956 67.7399 26.6115 66.8489 25.9194V25.9189C66.8489 25.9194 39.4463 0.437321 39.0063 0.244883C38.8157 0.0652091 38.5656 0.0034507 38.2792 0.00174566H38.2789ZM97.8452 8.94327L76.9579 9.17472C75.7989 9.2738 75.4163 9.79698 75.1342 10.8274L67.2053 47.4179C66.9041 48.9097 66.9757 49.4873 67.5445 50.1602C68.098 50.8148 68.5255 50.8642 73.6763 50.8642C78.8775 50.8641 78.3464 50.8015 78.66 50.0736C78.8943 48.7402 79.6271 47.8923 80.4153 46.7354C82.5239 44.0951 85.8357 42.3652 88.7641 42.3756C91.8274 42.427 93.9426 43.9687 95.1388 46.453C95.8153 49.1905 95.4396 49.9321 95.7776 50.7562C96.055 51.3135 100.409 50.6896 102.724 50.8641C105.15 50.8414 108.16 51.0683 108.794 50.5825C109.438 50.0928 109.576 49.7589 110.078 47.4525L111.955 31.8831C112.159 30.229 111.666 29.6579 110.553 27.7073C110.553 27.7073 102.519 12.257 100.6 10.4063C99.9713 9.75639 99.187 8.98331 97.8453 8.94323L97.8452 8.94327ZM96.3402 12.8606C97.6779 13.0044 98.3505 14.5599 98.3505 14.5599L104.663 25.9299C104.663 25.9299 105.043 26.9077 105.134 27.3616C105.277 28.0749 105.27 28.25 105.079 28.6495C104.808 29.2201 104.507 29.4857 103.912 29.6849L79.2323 29.8387C78.2978 29.8024 78.1991 29.2442 78.3118 28.5161L81.4774 14.3804C81.639 13.6089 81.7516 13.4273 82.2681 13.3912L96.3402 12.8606ZM47.4864 31.9124V31.9129C44.5979 31.9119 41.2299 31.9136 37.3663 31.9202C29.5601 32.0553 14.9319 31.9602 13.9476 32.3255C11.812 32.8654 12.1014 35.7245 13.4715 36.4715C14.0236 36.7376 14.3091 36.7406 37.0697 36.7406C57.1978 36.7406 60.11 36.7657 60.11 36.9378C58.4337 46.2578 60.7529 33.8111 58.9062 43.6146C58.5405 45.3795 58.4379 45.6833 58.1008 46.0055L57.7156 46.3751L30.1628 46.3659C30.1628 46.3659 3.38235 46.0989 2.60953 46.3564C2.15323 46.4473 1.75734 46.6386 1.38815 46.8741C-0.1797 47.6941 -0.553145 49.7105 0.963699 50.759C1.1233 50.8909 1.28558 51.0165 1.46545 51.0977C2.04238 51.4681 20.5994 51.0739 30.1663 51.062C39.7473 51.05 58.8981 51.2209 59.7473 50.5981C60.2316 50.3619 60.8779 49.9544 61.1845 49.6927C61.6691 49.2921 61.6892 49.2748 62.0192 48.8573C62.5622 48.2582 62.9909 47.1625 63.3865 45.3668L64.5884 38.9714C65.0999 36.5822 65.0827 35.5736 64.5144 34.4568C63.8098 33.0724 62.6582 32.2788 60.9877 32.0264C60.5047 31.9538 56.1528 31.9165 47.487 31.9126L47.4864 31.9124Z" fill="#026300"/>
</svg>
