<svg width="72" height="73" viewBox="0 0 72 73" fill="none" xmlns="http://www.w3.org/2000/svg">
<path d="M64.2857 0.1875H7.71429C3.45375 0.1875 0 3.67123 0 7.96875V65.0312C0 69.3288 3.45375 72.8125 7.71429 72.8125H64.2857C68.5462 72.8125 72 69.3288 72 65.0312V7.96875C72 3.67123 68.5462 0.1875 64.2857 0.1875ZM28.6259 37.4895C14.0511 26.82 14.1996 26.7931 10.2857 23.7204V19.6406C10.2857 17.4919 12.0126 15.75 14.1429 15.75H57.8571C59.9874 15.75 61.7143 17.4919 61.7143 19.6406V23.7204C57.7975 26.7955 57.9481 26.8206 43.3741 37.4897C41.6866 38.7306 38.3289 41.724 36 41.6873C33.6692 41.7227 30.316 38.7326 28.6259 37.4895ZM61.7143 30.3034V53.3594C61.7143 55.5081 59.9874 57.25 57.8571 57.25H14.1429C12.0126 57.25 10.2857 55.5081 10.2857 53.3594V30.3034C12.529 32.0532 15.6422 34.3944 25.6023 41.6857C27.8783 43.3621 31.7054 46.8967 35.9995 46.8748C40.3206 46.8966 44.2019 43.3018 46.4009 41.6833C56.3585 34.394 59.471 32.053 61.7143 30.3034Z" fill="#026300"/>
</svg>
