<svg width="73" height="73" viewBox="0 0 73 73" fill="none" xmlns="http://www.w3.org/2000/svg">
<path d="M65.1786 0.1875H7.82143C5.74706 0.1875 3.75765 1.00731 2.29084 2.46658C0.824041 3.92584 0 5.90503 0 7.96875L0 65.0312C0 67.095 0.824041 69.0742 2.29084 70.5334C3.75765 71.9927 5.74706 72.8125 7.82143 72.8125H65.1786C67.2529 72.8125 69.2424 71.9927 70.7092 70.5334C72.176 69.0742 73 67.095 73 65.0312V7.96875C73 5.90503 72.176 3.92584 70.7092 2.46658C69.2424 1.00731 67.2529 0.1875 65.1786 0.1875ZM62.5079 50.0151L60.0637 60.5522C59.9395 61.0879 59.6366 61.5659 59.2042 61.9083C58.7719 62.2507 58.2356 62.4373 57.683 62.4375C31.6116 62.4375 10.4286 41.4103 10.4286 15.4258C10.448 14.8812 10.6426 14.3572 10.9837 13.9308C11.3248 13.5045 11.7945 13.1983 12.3236 13.0574L22.9152 10.6257C23.0958 10.5877 23.2797 10.5665 23.4643 10.5625C23.9369 10.5862 24.3946 10.7354 24.7897 10.9945C25.1849 11.2537 25.5031 11.6133 25.7113 12.0361L30.5997 23.3837C30.7194 23.6897 30.7861 24.0136 30.7969 24.3418C30.7571 25.0616 30.4354 25.7373 29.9007 26.2239L23.7266 31.2493C27.4676 39.1374 33.849 45.486 41.7778 49.2078L46.8292 43.0654C47.3183 42.5335 47.9974 42.2134 48.721 42.1738C49.0508 42.1844 49.3765 42.2507 49.684 42.37L61.0902 47.2333C61.5154 47.4402 61.8771 47.7567 62.1376 48.1498C62.3981 48.543 62.5479 48.9984 62.5714 49.4688C62.5682 49.6525 62.5469 49.8354 62.5079 50.0151Z" fill="#026300"/>
</svg>
