<svg width="108" height="115" viewBox="0 0 108 115" fill="none" xmlns="http://www.w3.org/2000/svg">
<path d="M2.13455 20.8003L25.3771 1.41346C27.948 -0.733463 31.8309 -0.392868 34.0468 2.15093L44.1021 13.7094L26.6654 28.2632C26.0194 28.809 25.9534 29.7448 26.5042 30.3898L28.5165 32.6979C29.0673 33.3429 30.0441 33.4251 30.69 32.8794L48.1204 18.3437L56.1634 27.5942L48.0228 34.3724C47.3769 34.9182 47.3109 35.8541 47.8617 36.499L49.874 38.8071C50.4248 39.4521 51.4016 39.5344 52.0475 38.9886L60.1817 32.2284L68.2248 41.4789L50.7697 56.0261C50.1303 56.5538 50.0577 57.5078 50.6085 58.1527L52.6209 60.4608C53.1717 61.1059 54.1486 61.1881 54.7945 60.6423L72.2313 46.0885L80.2742 55.339L72.1337 62.1172C71.4878 62.663 71.4217 63.5989 71.9724 64.2438L73.9849 66.5519C74.5356 67.1969 75.5125 67.2792 76.1584 66.7334L84.3054 59.937L92.3489 69.1874L74.9117 83.7412C74.2721 84.2688 74.1997 85.2228 74.7505 85.8678L76.7628 88.1759C77.3135 88.8208 78.2904 88.9031 78.9363 88.3573L96.3539 73.858L106.409 85.4164C108.619 87.9783 108.354 91.7825 105.783 93.9293L82.5336 113.335C79.9627 115.481 76.08 115.141 73.864 112.597L1.48972 29.3068C-0.726242 26.763 -0.436277 22.9473 2.13455 20.8003Z" fill="#026300"/>
</svg>
