<svg width="89" height="109" viewBox="0 0 89 109" fill="none" xmlns="http://www.w3.org/2000/svg">
<path d="M38.379 107.638C37.6924 106.889 31.5426 92.829 24.7129 76.3932C13.6752 49.8309 12.2942 46.1611 12.2864 43.3712C12.2779 40.6412 12.9459 38.7238 17.4081 28.6497C20.2299 22.2792 22.6405 16.9644 22.765 16.839C22.8895 16.7137 24.0682 18.5568 25.3843 20.935C27.1877 24.1939 27.7771 25.8801 27.7771 27.7805C27.7771 34.05 32.8686 37.8432 38.1355 35.4978C45.1819 32.3599 43.362 20.6393 35.7818 20.3396C34.6529 20.2949 33.0916 20.4334 32.3121 20.6476C31.0164 21.0033 30.6763 20.6605 28.344 16.6528C26.9409 14.2416 25.7147 11.8442 25.619 11.3252C25.3768 10.0114 27.6533 8.55939 29.9554 8.55939C31.5686 8.55939 50.9583 14.5933 58.672 17.4958C63.3143 19.2425 63.2774 19.1793 71.6301 39.6617C74.5741 46.8809 79.6867 59.4168 82.9914 67.5192C86.2961 75.6216 89 82.8959 89 83.6842C89 85.7696 87.2599 87.0182 79.6465 90.3963C75.9051 92.0563 65.8944 96.9212 57.4006 101.207C48.9067 105.493 41.433 109 40.7923 109C40.1516 109 39.0656 108.387 38.379 107.638ZM45.0752 79.3109C46.0818 77.6712 57.2653 44.0636 57.1296 43.0858C57.0317 42.3796 56.5407 41.9445 55.8416 41.9445C54.6064 41.9445 54.4266 42.4027 46.4174 65.9659C44.1141 72.7422 42.4836 78.4164 42.6866 78.949C43.0872 80 44.5189 80.2169 45.0752 79.3109ZM63.718 71.6804C66.2603 70.611 67.4586 68.7258 67.4586 65.7953C67.4586 61.0014 62.8425 58.1769 58.1994 60.13C54.2254 61.8016 53.341 67.278 56.5533 70.3233C58.8513 72.5019 60.8604 72.8824 63.718 71.6804ZM58.3885 68.4814C56.0885 66.1659 57.7946 62.1941 61.0812 62.2125C62.9572 62.2232 63.6784 62.6597 64.5394 64.3064C65.4708 66.0879 65.3654 66.6457 63.7996 68.2219C62.1143 69.9186 59.9207 70.0238 58.3885 68.4814ZM42.2892 60.8342C43.8692 59.2435 44.2166 58.4619 44.2166 56.497C44.2166 54.532 43.8692 53.7504 42.2892 52.1598C40.644 50.5035 39.9716 50.2194 37.6975 50.2194C35.4233 50.2194 34.7509 50.5035 33.1057 52.1598C31.5683 53.7075 31.1824 54.5446 31.1984 56.2972C31.237 60.5091 33.5285 62.7185 37.8959 62.7543C39.9583 62.7715 40.6771 62.457 42.2892 60.8342ZM36.5637 60.0417C34.7063 59.6428 34.0127 58.7488 34.0127 56.7532C34.0127 54.345 35.2864 53.0729 37.6975 53.0729C38.7442 53.0729 40.0014 53.4764 40.4914 53.9696C41.4245 54.9091 41.6683 57.4433 40.9368 58.6013C40.3444 59.5392 37.9287 60.3349 36.5637 60.0417ZM19.8408 101.337C12.4928 100.929 7.73311 100.418 6.89628 99.949C4.12322 98.3933 4.07804 97.7588 4.49234 66.1986C4.92637 33.1342 4.62496 35.2866 9.46775 30.6687C12.7709 27.5188 15.8726 24.9096 15.8726 25.2807C15.8726 25.4308 14.5869 28.4584 13.0155 32.0088C9.58793 39.753 9.08118 41.7929 9.66352 45.5015C9.90785 47.0576 14.9857 60.0592 20.9476 74.3939C33.6701 104.984 32.5526 102.172 31.9476 102.067C31.6804 102.021 26.2323 101.693 19.8408 101.337ZM38.5478 30.0376C38.5478 28.2401 36.2586 25.4751 33.986 24.5274C31.9877 23.6942 32.6503 22.8499 35.314 22.8353C37.8183 22.8224 39.6815 25.1051 39.6815 28.1884C39.6815 29.5966 39.4264 30.9075 39.1146 31.1015C38.7949 31.3003 38.5478 30.8366 38.5478 30.0376ZM28.4722 24.9521C23.4045 14.6563 16.5937 5.93017 12.0182 3.87104C9.25283 2.62652 7.10132 2.85882 4.84511 4.64545C1.73535 7.10802 3.86014 13.6519 9.9801 20.46L13.0239 23.8461L11.6664 24.7415C10.3553 25.6063 10.2337 25.5547 8.11101 23.2331C3.24611 17.912 0 11.7282 0 7.78163C0 3.67306 4.22094 0.00172815 8.94656 5.35846e-07C12.3785 -0.000928291 14.8425 1.20552 18.4808 4.66953C24.2994 10.2095 34.3111 27.0815 32.8393 28.8669C31.5886 30.384 30.7963 29.6737 28.4722 24.9521Z" fill="#026300"/>
</svg>
